name ./resultDataOpenSim/trcMotMarkerGrf/sub09/grf-15-02.mot
datacolumns 19
datarows 20
range 1.54400000 1.62000000
endheader

                time	     ground_force_vx	     ground_force_vy	     ground_force_vz	     ground_force_px	     ground_force_py	     ground_force_pz	   l_ground_force_vx	   l_ground_force_vy	   l_ground_force_vz	   l_ground_force_px	   l_ground_force_py	   l_ground_force_pz	     ground_torque_x	     ground_torque_y	     ground_torque_z	   l_ground_torque_x	   l_ground_torque_y	   l_ground_torque_z	
          1.54400000	        -26.31791141	        493.08875487	         -2.56003696	          1.09774042	          0.00000000	          0.07143759	          0.00000000	          0.00000000	          0.00000000	          0.00000000	          0.00000000	          0.00000000	          0.00000000	          1.39741062	          0.00000000	          0.00000000	          0.00000000	          0.00000000	
          1.54800000	        -26.30089927	        484.22143406	         -1.50269673	          1.09889740	          0.00000000	          0.07116475	          0.00000000	          0.00000000	          0.00000000	          0.00000000	          0.00000000	          0.00000000	          0.00000000	          1.57287682	          0.00000000	          0.00000000	          0.00000000	          0.00000000	
          1.55200000	        -24.70719292	        475.59620616	         -1.44655269	          1.09983973	          0.00000000	          0.07097738	          0.00000000	          0.00000000	          0.00000000	          0.00000000	          0.00000000	          0.00000000	          0.00000000	          1.58211366	          0.00000000	          0.00000000	          0.00000000	          0.00000000	
          1.55600000	        -21.81184590	        467.20479685	         -2.21984169	          1.10059366	          0.00000000	          0.07087818	          0.00000000	          0.00000000	          0.00000000	          0.00000000	          0.00000000	          0.00000000	          0.00000000	          1.45080038	          0.00000000	          0.00000000	          0.00000000	          0.00000000	
          1.56000000	        -18.24485552	        459.07089215	         -3.54998544	          1.10123394	          0.00000000	          0.07084760	          0.00000000	          0.00000000	          0.00000000	          0.00000000	          0.00000000	          0.00000000	          0.00000000	          1.22833183	          0.00000000	          0.00000000	          0.00000000	          0.00000000	
          1.56400000	        -14.80793126	        451.26471033	         -5.11254925	          1.10185617	          0.00000000	          0.07085260	          0.00000000	          0.00000000	          0.00000000	          0.00000000	          0.00000000	          0.00000000	          0.00000000	          0.97636208	          0.00000000	          0.00000000	          0.00000000	          0.00000000	
          1.56800000	        -12.24865078	        443.88640829	         -6.57441982	          1.10255807	          0.00000000	          0.07085568	          0.00000000	          0.00000000	          0.00000000	          0.00000000	          0.00000000	          0.00000000	          0.00000000	          0.75741098	          0.00000000	          0.00000000	          0.00000000	          0.00000000	
          1.57200000	        -11.06163527	        437.03251558	         -7.63179586	          1.10340619	          0.00000000	          0.07082390	          0.00000000	          0.00000000	          0.00000000	          0.00000000	          0.00000000	          0.00000000	          0.00000000	          0.62469204	          0.00000000	          0.00000000	          0.00000000	          0.00000000	
          1.57600000	        -11.37976055	        430.76820394	         -8.04733024	          1.10437839	          0.00000000	          0.07073679	          0.00000000	          0.00000000	          0.00000000	          0.00000000	          0.00000000	          0.00000000	          0.00000000	          0.61340127	          0.00000000	          0.00000000	          0.00000000	          0.00000000	
          1.58000000	        -12.96126590	        425.11201554	         -7.69345427	          1.10542958	          0.00000000	          0.07058562	          0.00000000	          0.00000000	          0.00000000	          0.00000000	          0.00000000	          0.00000000	          0.00000000	          0.73415786	          0.00000000	          0.00000000	          0.00000000	          0.00000000	
          1.58400000	        -15.24771074	        420.03690164	         -6.59224379	          1.10650745	          0.00000000	          0.07037898	          0.00000000	          0.00000000	          0.00000000	          0.00000000	          0.00000000	          0.00000000	          0.00000000	          0.97030010	          0.00000000	          0.00000000	          0.00000000	          0.00000000	
          1.58800000	        -17.48754864	        415.48970412	         -4.92175996	          1.10750338	          0.00000000	          0.07013330	          0.00000000	          0.00000000	          0.00000000	          0.00000000	          0.00000000	          0.00000000	          0.00000000	          1.28091181	          0.00000000	          0.00000000	          0.00000000	          0.00000000	
          1.59200000	        -18.93427860	        411.41614343	         -2.97942757	          1.10830562	          0.00000000	          0.06986628	          0.00000000	          0.00000000	          0.00000000	          0.00000000	          0.00000000	          0.00000000	          0.00000000	          1.60997176	          0.00000000	          0.00000000	          0.00000000	          0.00000000	
          1.59600000	        -19.06814519	        407.78006440	         -1.12301256	          1.10883707	          0.00000000	          0.06960329	          0.00000000	          0.00000000	          0.00000000	          0.00000000	          0.00000000	          0.00000000	          0.00000000	          1.89947499	          0.00000000	          0.00000000	          0.00000000	          0.00000000	
          1.60000000	        -17.73784721	        404.56382700	          0.29621089	          1.10909764	          0.00000000	          0.06937356	          0.00000000	          0.00000000	          0.00000000	          0.00000000	          0.00000000	          0.00000000	          0.00000000	          2.10247217	          0.00000000	          0.00000000	          0.00000000	          0.00000000	
          1.60400000	        -15.17371619	        401.73969147	          1.00014515	          1.10916517	          0.00000000	          0.06920574	          0.00000000	          0.00000000	          0.00000000	          0.00000000	          0.00000000	          0.00000000	          0.00000000	          2.19203912	          0.00000000	          0.00000000	          0.00000000	          0.00000000	
          1.60800000	        -11.89879094	        399.24558320	          0.83738201	          1.10914845	          0.00000000	          0.06911495	          0.00000000	          0.00000000	          0.00000000	          0.00000000	          0.00000000	          0.00000000	          0.00000000	          2.16420583	          0.00000000	          0.00000000	          0.00000000	          0.00000000	
          1.61200000	         -8.57709374	        397.01182112	         -0.19013838	          1.10920074	          0.00000000	          0.06909841	          0.00000000	          0.00000000	          0.00000000	          0.00000000	          0.00000000	          0.00000000	          0.00000000	          2.03560191	          0.00000000	          0.00000000	          0.00000000	          0.00000000	
          1.61600000	         -5.82783477	        395.01524757	         -1.93229348	          1.10943122	          0.00000000	          0.06913554	          0.00000000	          0.00000000	          0.00000000	          0.00000000	          0.00000000	          0.00000000	          0.00000000	          1.83822371	          0.00000000	          0.00000000	          0.00000000	          0.00000000	
          1.62000000	         -4.05622361	        393.28669055	         -4.11547254	          1.10985660	          0.00000000	          0.06918590	          0.00000000	          0.00000000	          0.00000000	          0.00000000	          0.00000000	          0.00000000	          0.00000000	          1.61337609	          0.00000000	          0.00000000	          0.00000000	          0.00000000	
